<svg width="173" height="84" viewBox="0 0 173 84" fill="none" xmlns="http://www.w3.org/2000/svg">
<path d="M128.308 3.1309C116.486 3.1309 105.241 7.30468 96.5914 14.8699C95.4382 15.9133 95.4382 17.4785 96.5914 18.5222C97.7447 19.5656 99.4747 19.5656 100.628 18.5222C107.836 12.0006 117.64 8.08758 128.02 8.08758C149.645 8.34835 167.233 24.2615 167.233 43.5654C167.233 62.8694 149.645 78.7825 128.308 78.7825C106.971 78.7825 89.3832 62.8697 89.3832 43.5654C89.3832 21.3918 69.2 3.1309 44.6914 3.1309C20.1829 3.1309 0 21.3918 0 43.5654C0 65.7391 20.1832 84 44.6918 84C53.63 84 62.28 81.6522 69.4886 77.2173C71.7953 75.6521 74.1018 74.0869 76.4086 72.261C77.5618 71.2176 77.5618 69.6524 76.4086 68.6087C75.2553 67.565 73.5253 67.5654 72.3718 68.6087C70.6418 70.1739 68.6236 71.7391 66.3168 73.0436C59.9736 76.6958 52.4768 78.7825 44.6918 78.7825C23.355 78.7825 5.76678 62.8697 5.76678 43.5654C5.76678 24.2612 23.355 8.34836 44.6918 8.34836C66.0286 8.34836 83.6168 24.2612 83.6168 43.5654C83.6168 65.7391 103.8 84 128.309 84C152.817 84 173 65.7391 173 43.5654C173 21.3918 152.817 3.1309 128.308 3.1309Z" fill="#00418F"/>
<path d="M62.5678 64.9069C61.2444 62.2268 59.1993 59.9761 56.6535 58.3976C54.2405 56.9013 51.4812 56.0752 48.6462 55.9929V42.9423C49.0701 43 49.5031 43.0295 49.9428 43.0295C52.3919 43.0295 55.0379 42.1441 57.379 40.4879C60.5057 38.2759 62.5071 35.1007 62.7327 31.9944C62.7898 31.2094 62.2797 30.4945 61.5166 30.2897C58.4968 29.4794 54.8272 30.316 51.7004 32.528C50.5057 33.3732 49.476 34.3593 48.6462 35.4282V23.7517C48.6462 22.8445 47.9076 22.109 46.9965 22.109C46.0854 22.109 45.3468 22.8445 45.3468 23.7517V26.5795C44.2538 25.3087 42.813 24.2064 41.1302 23.3939C37.9005 21.8344 34.3799 21.6296 31.7127 22.8458C30.9942 23.1735 30.61 23.9626 30.7966 24.7274C31.4893 27.566 33.8311 30.1918 37.0609 31.7513C38.8945 32.6366 40.8216 33.0853 42.6333 33.0853C43.5792 33.0853 44.4937 32.9629 45.3468 32.7165V43.6662C44.08 41.8347 42.4032 40.1422 40.3985 38.7241C35.9621 35.5855 30.7805 34.3919 26.5375 35.5304C25.7745 35.7351 25.2644 36.4501 25.3214 37.235C25.6384 41.5996 28.4762 46.079 32.9125 49.2175C36.2432 51.5738 39.9935 52.8338 43.4518 52.8338C44.0952 52.8338 44.728 52.7885 45.3467 52.7003V55.9958C42.5532 56.0973 39.8374 56.9222 37.4578 58.3975C34.9121 59.976 32.8669 62.2268 31.5437 64.9068C31.2923 65.416 31.3226 65.9962 31.6238 66.4778C31.925 66.9595 32.4543 67.2302 33.0241 67.2302H61.0871C61.6569 67.2302 62.1863 66.9594 62.4874 66.4778C62.7888 65.9963 62.8192 65.4161 62.5678 64.9069ZM53.6112 35.2065C55.3669 33.9645 57.3574 33.281 59.1125 33.273C58.5269 34.9207 57.2239 36.5675 55.4682 37.8095C53.7126 39.0516 51.722 39.7348 49.9668 39.7431C50.5523 38.0953 51.8554 36.4484 53.6112 35.2065ZM38.5004 28.795C36.7909 27.9696 35.4048 26.7436 34.612 25.4076C36.1561 25.2002 37.9813 25.5248 39.6909 26.3502C41.4004 27.1756 42.7865 28.4015 43.5793 29.7374C42.0352 29.945 40.2099 29.6204 38.5004 28.795ZM34.8235 46.5393C31.7469 44.3628 29.5587 41.3649 28.844 38.4446C31.8483 38.1556 35.4116 39.2263 38.4879 41.4026C41.5645 43.5791 43.7528 46.577 44.4675 49.4973C41.4632 49.7865 37.8997 48.7155 34.8235 46.5393ZM36.0138 63.9448C38.3962 60.9878 41.9992 59.2355 45.9335 59.2355H48.1779C52.1121 59.2355 55.7152 60.9878 58.0977 63.9448H36.0138Z" fill="#00418F"/>
<path d="M139.177 18.9084H120.354C117.387 18.9084 114.982 21.3033 114.982 24.2586V61.8802C114.982 64.8353 117.387 67.2302 120.354 67.2302H139.177C142.145 67.2302 144.551 64.8353 144.551 61.8802V24.2586C144.551 21.3033 142.145 18.9084 139.177 18.9084ZM129.766 64.5861C128.999 64.5861 128.376 63.9667 128.376 63.2014C128.376 62.4375 128.999 61.8181 129.766 61.8181C130.534 61.8181 131.157 62.4376 131.157 63.2014C131.157 63.9668 130.534 64.5861 129.766 64.5861ZM140.002 58.9249H119.531V24.9487H140.002V58.9249Z" fill="#00418F"/>
<path d="M96.5914 22.109C96.5914 23.5594 95.4107 24.7352 93.9543 24.7352C92.4978 24.7352 91.3171 23.5594 91.3171 22.109C91.3171 20.6586 92.4978 19.4828 93.9543 19.4828C95.4107 19.4828 96.5914 20.6586 96.5914 22.109Z" fill="#00418F"/>
<path d="M82.2805 65.6545C82.2805 67.1049 81.0998 68.2807 79.6433 68.2807C78.1868 68.2807 77.0061 67.1049 77.0061 65.6545C77.0061 64.2041 78.1868 63.0283 79.6433 63.0283C81.0998 63.0283 82.2805 64.2041 82.2805 65.6545Z" fill="#00418F"/>
</svg>
