<svg width="569" height="431" viewBox="0 0 569 431" fill="none" xmlns="http://www.w3.org/2000/svg">
<rect x="20" y="22" width="530" height="386" rx="55" fill="#CAE3FF"/>
<path d="M406.699 90.0175C372.176 90.2656 339.429 103.337 314.336 126.784C310.991 130.017 311.026 134.831 314.417 138.016C317.808 141.2 322.86 141.164 326.205 137.931C347.111 117.724 375.654 105.485 405.967 105.267C469.124 105.615 520.839 154.183 521.266 213.549C521.692 272.915 470.681 322.221 408.371 322.669C346.061 323.117 294.347 274.549 293.92 215.183C293.43 146.992 234.085 91.1785 162.513 91.6929C90.9406 92.2073 32.4042 148.868 32.8942 217.059C33.3843 285.249 92.729 340.984 164.301 340.469C190.404 340.282 215.612 332.88 236.565 319.09C243.267 314.228 249.968 309.366 256.664 303.703C260.009 300.47 259.975 295.656 256.584 292.471C253.193 289.286 248.141 289.323 244.795 292.556C239.778 297.405 233.918 302.261 227.211 306.321C208.767 317.686 186.921 324.261 164.186 324.424C101.876 324.872 50.1616 276.304 49.735 216.938C49.3083 157.571 100.319 108.265 162.629 107.818C224.939 107.37 276.654 155.937 277.08 215.304C277.57 283.494 336.915 339.229 408.487 338.714C480.06 338.2 538.596 281.619 538.106 213.428C537.616 145.237 478.271 89.5031 406.699 90.0175Z" fill="#00418F"/>
<path d="M216.083 281.377C212.159 273.163 206.137 266.284 198.667 261.483C191.588 256.932 183.511 254.45 175.23 254.256L174.942 214.121C176.181 214.29 177.446 214.372 178.73 214.362C185.882 214.311 193.59 211.533 200.39 206.39C209.472 199.522 215.247 189.715 215.837 180.158C215.986 177.743 214.481 175.554 212.248 174.941C203.411 172.512 192.713 175.162 183.631 182.03C180.161 184.655 177.176 187.709 174.776 191.013L174.518 155.105C174.498 152.315 172.325 150.068 169.664 150.087C167.003 150.107 164.863 152.384 164.883 155.174L164.945 163.87C161.725 159.985 157.493 156.625 152.561 154.162C143.095 149.434 132.809 148.878 125.047 152.674C122.956 153.697 121.851 156.132 122.413 158.48C124.499 167.195 131.396 175.221 140.862 179.949C146.236 182.633 151.874 183.973 157.165 183.935C159.927 183.915 162.595 183.519 165.081 182.743L165.323 216.417C161.583 210.811 156.649 205.641 150.763 201.322C137.738 191.763 122.58 188.201 110.214 191.792C107.99 192.437 106.517 194.647 106.7 197.059C107.723 210.475 116.109 224.191 129.133 233.75C138.912 240.926 149.892 244.723 159.991 244.65C161.87 244.636 163.717 244.484 165.522 244.199L165.595 254.334C157.439 254.705 149.527 257.299 142.61 261.886C135.211 266.793 129.288 273.758 125.483 282.028C124.76 283.599 124.861 285.383 125.752 286.858C126.642 288.333 128.194 289.154 129.858 289.142L211.81 288.553C213.474 288.541 215.014 287.697 215.883 286.21C216.752 284.723 216.828 282.938 216.083 281.377ZM189.27 190.227C194.37 186.371 200.168 184.227 205.293 184.166C203.619 189.245 199.85 194.337 194.751 198.193C189.651 202.05 183.853 204.193 178.728 204.255C180.401 199.175 184.17 194.083 189.27 190.227ZM145.001 170.827C139.99 168.325 135.915 164.584 133.57 160.491C138.075 159.821 143.412 160.781 148.423 163.284C153.433 165.786 157.509 169.527 159.853 173.619C155.349 174.29 150.011 173.33 145.001 170.827ZM134.655 225.473C125.622 218.845 119.166 209.671 117.014 200.705C125.781 199.753 136.211 202.971 145.243 209.6C154.275 216.228 160.732 225.402 162.884 234.368C154.117 235.32 143.686 232.101 134.655 225.473ZM138.516 278.976C145.408 269.832 155.891 264.368 167.38 264.285L173.935 264.238C185.424 264.155 195.984 269.469 203.007 278.512L138.516 278.976Z" fill="#00418F"/>
<path d="M438.789 138.31L383.82 138.705C375.153 138.767 368.183 146.183 368.249 155.271L369.08 270.969C369.145 280.057 376.221 287.371 384.888 287.309L439.857 286.914C448.523 286.852 455.497 279.436 455.432 270.348L454.601 154.651C454.535 145.562 447.455 138.248 438.789 138.31ZM412.316 278.98C410.076 278.996 408.241 277.104 408.225 274.751C408.208 272.402 410.015 270.484 412.255 270.468C414.495 270.452 416.329 272.344 416.346 274.692C416.363 277.046 414.556 278.964 412.316 278.98ZM442.082 261.355L382.3 261.785L381.549 157.298L441.331 156.868L442.082 261.355Z" fill="#00418F"/>
<path d="M311.796 155.247C311.828 159.708 308.406 163.348 304.153 163.379C299.899 163.41 296.425 159.818 296.393 155.358C296.361 150.898 299.783 147.257 304.037 147.226C308.29 147.196 311.764 150.787 311.796 155.247Z" fill="#00418F"/>
<path d="M278.003 278.101C278.035 282.561 274.613 286.202 270.36 286.233C266.107 286.263 262.633 282.672 262.601 278.212C262.569 273.751 265.991 270.111 270.244 270.08C274.497 270.05 277.971 273.641 278.003 278.101Z" fill="#00418F"/>
<path d="M406.699 90.0175C372.176 90.2656 339.429 103.337 314.336 126.784C310.991 130.017 311.026 134.831 314.417 138.016C317.808 141.2 322.86 141.164 326.205 137.931M406.699 90.0175C478.271 89.5031 537.547 135.609 538.037 203.799C538.527 271.99 480.06 338.2 408.487 338.714M406.699 90.0175C478.271 89.5031 537.616 145.237 538.106 213.428C538.596 281.619 480.06 338.2 408.487 338.714M326.205 137.931C347.111 117.724 375.146 105.489 405.459 105.272C467.769 104.824 519.922 143.758 520.349 203.125C520.776 262.491 470.681 322.221 408.371 322.669M326.205 137.931C347.111 117.724 375.654 105.485 405.967 105.267C469.124 105.615 520.839 154.183 521.266 213.549C521.692 272.915 470.681 322.221 408.371 322.669M408.371 322.669C346.061 323.117 294.278 264.921 293.851 205.554C293.361 137.364 234.085 91.1785 162.513 91.6929M408.371 322.669C346.061 323.117 294.347 274.549 293.92 215.183C293.43 146.992 234.085 91.1785 162.513 91.6929M162.513 91.6929C90.9406 92.2073 32.3292 138.437 32.825 207.43C33.3209 276.424 92.729 340.984 164.301 340.469M162.513 91.6929C90.9406 92.2073 32.4042 148.868 32.8942 217.059C33.3843 285.249 92.729 340.984 164.301 340.469M164.301 340.469C190.404 340.282 215.612 332.88 236.565 319.09C243.267 314.228 249.968 309.366 256.664 303.703C260.009 300.47 259.975 295.656 256.584 292.471C253.193 289.286 248.141 289.323 244.795 292.556M244.795 292.556C238.93 296.609 237.151 299.639 231.286 303.692C212.848 315.859 186.921 324.261 164.186 324.424M244.795 292.556C239.778 297.405 233.918 302.261 227.211 306.321C208.767 317.686 186.921 324.261 164.186 324.424M164.186 324.424C101.876 324.872 50.0924 266.676 49.6658 207.309C49.2391 147.943 100.21 108.266 162.519 107.818C224.829 107.371 276.579 145.507 277.011 205.675C277.501 273.866 336.915 339.229 408.487 338.714M164.186 324.424C101.876 324.872 50.1616 276.304 49.735 216.938C49.3083 157.571 100.319 108.265 162.629 107.818C224.939 107.37 276.654 155.937 277.08 215.304C277.57 283.494 336.915 339.229 408.487 338.714M216.083 281.377C212.159 273.163 206.137 266.284 198.667 261.483C191.588 256.932 183.511 254.45 175.23 254.256L174.942 214.121C176.181 214.29 177.446 214.372 178.73 214.362C185.882 214.311 193.59 211.533 200.39 206.39C209.472 199.522 215.247 189.715 215.837 180.158C215.986 177.743 214.481 175.554 212.248 174.941C203.411 172.512 192.713 175.162 183.631 182.03C180.161 184.655 177.176 187.709 174.776 191.013L174.518 155.105C174.498 152.315 172.325 150.068 169.664 150.087C167.003 150.107 164.863 152.384 164.883 155.174L164.945 163.87C161.725 159.985 157.493 156.625 152.561 154.162C143.095 149.434 132.809 148.878 125.047 152.674C122.956 153.697 121.851 156.132 122.413 158.48C124.499 167.195 131.396 175.221 140.862 179.949C146.236 182.633 151.874 183.973 157.165 183.935C159.927 183.915 162.595 183.519 165.081 182.743L165.323 216.417C161.583 210.811 156.649 205.641 150.763 201.322C137.738 191.763 122.58 188.201 110.214 191.792C107.99 192.437 106.517 194.647 106.7 197.059C107.723 210.475 116.109 224.191 129.133 233.75C138.912 240.926 149.892 244.723 159.991 244.65C161.87 244.636 163.717 244.484 165.522 244.199L165.595 254.334C157.439 254.705 149.527 257.299 142.61 261.886C135.211 266.793 129.288 273.758 125.483 282.028C124.76 283.599 124.861 285.383 125.752 286.858C126.642 288.333 128.194 289.154 129.858 289.142L211.81 288.553C213.474 288.541 215.014 287.697 215.883 286.21C216.752 284.723 216.828 282.938 216.083 281.377ZM189.27 190.227C194.37 186.371 200.168 184.227 205.293 184.166C203.619 189.245 199.85 194.337 194.751 198.193C189.651 202.05 183.853 204.193 178.728 204.255C180.401 199.175 184.17 194.083 189.27 190.227ZM145.001 170.827C139.99 168.325 135.915 164.584 133.57 160.491C138.075 159.821 143.412 160.781 148.423 163.284C153.433 165.786 157.509 169.527 159.853 173.619C155.349 174.29 150.011 173.33 145.001 170.827ZM134.655 225.473C125.622 218.845 119.166 209.671 117.014 200.705C125.781 199.753 136.211 202.971 145.243 209.6C154.275 216.228 160.732 225.402 162.884 234.368C154.117 235.32 143.686 232.101 134.655 225.473ZM138.516 278.976C145.408 269.832 155.891 264.368 167.38 264.285L173.935 264.238C185.424 264.155 195.984 269.469 203.007 278.512L138.516 278.976ZM438.789 138.31L383.82 138.705C375.153 138.767 368.183 146.183 368.249 155.271L369.08 270.969C369.145 280.057 376.221 287.371 384.888 287.309L439.857 286.914C448.523 286.852 455.497 279.436 455.432 270.348L454.601 154.651C454.535 145.562 447.455 138.248 438.789 138.31ZM412.316 278.98C410.076 278.996 408.241 277.104 408.225 274.751C408.208 272.402 410.015 270.484 412.255 270.468C414.495 270.452 416.329 272.344 416.346 274.692C416.363 277.046 414.556 278.964 412.316 278.98ZM442.082 261.355L382.3 261.785L381.549 157.298L441.331 156.868L442.082 261.355ZM311.796 155.247C311.828 159.708 308.406 163.348 304.153 163.379C299.899 163.41 296.425 159.818 296.393 155.358C296.361 150.898 299.783 147.257 304.037 147.226C308.29 147.196 311.764 150.787 311.796 155.247ZM278.003 278.101C278.035 282.561 274.613 286.202 270.36 286.233C266.107 286.263 262.633 282.672 262.601 278.212C262.569 273.751 265.991 270.111 270.244 270.08C274.497 270.05 277.971 273.641 278.003 278.101Z" stroke="#00418F" stroke-width="20"/>
</svg>
