<svg width="227" height="111" viewBox="0 0 227 111" fill="none" xmlns="http://www.w3.org/2000/svg">
<path d="M167.882 4.49443C152.417 4.60558 137.745 10.1427 126.5 20.0688C125.001 21.4374 125.016 23.4742 126.534 24.8215C128.053 26.1684 130.316 26.1522 131.815 24.7836C141.184 16.2292 153.972 11.0449 167.551 10.9473C195.844 11.0834 219.001 31.626 219.182 56.7465C219.363 81.8671 196.502 102.74 168.59 102.941C140.677 103.142 117.519 82.5994 117.339 57.4784C117.131 28.6236 90.5567 5.05015 58.4946 5.28057C26.4325 5.51099 0.200061 29.4639 0.407434 58.3188C0.614807 87.1737 27.1893 110.747 59.2514 110.517C70.9444 110.433 82.2384 107.296 91.6271 101.457C94.6302 99.3987 97.6329 97.3401 100.634 94.9423C102.132 93.5737 102.118 91.5369 100.599 90.1896C99.081 88.8423 96.8178 88.8589 95.3184 90.2275C93.0699 92.2806 90.4443 94.3364 87.4388 96.0556C79.1747 100.868 69.3869 103.654 59.2026 103.727C31.2898 103.928 8.13208 83.3855 7.95154 58.2646C7.771 33.1436 30.6311 12.2707 58.5439 12.0701C86.4567 11.8695 109.614 32.4117 109.795 57.5327C110.002 86.3875 136.577 109.961 168.639 109.731C200.701 109.5 226.933 85.5472 226.726 56.6923C226.519 27.8374 199.944 4.26401 167.882 4.49443Z" fill="#CAE3FF"/>
<path d="M82.4582 85.5025C80.702 82.0273 78.0055 79.1176 74.6603 77.0874C71.4896 75.163 67.8722 74.1139 64.1626 74.0334L64.0405 57.0505C64.5956 57.1216 65.1624 57.1559 65.7376 57.1518C68.9415 57.1287 72.3948 55.9518 75.4419 53.7745C79.5115 50.8666 82.1 46.7159 82.3662 42.6714C82.4335 41.6494 81.7596 40.7238 80.7593 40.4645C76.8012 39.4384 72.0084 40.5616 67.9387 43.4696C66.3837 44.5807 65.0459 45.8735 63.9704 47.2723L63.8612 32.0776C63.8527 30.897 62.8796 29.9468 61.6877 29.9554C60.4958 29.9639 59.5364 30.928 59.5449 32.1086L59.5713 35.7884C58.1295 34.145 56.2343 32.7241 54.0254 31.6826C49.7856 29.6836 45.1781 29.4501 41.7003 31.0579C40.7634 31.4911 40.2681 32.5215 40.5194 33.515C41.4521 37.2024 44.5402 40.5974 48.78 42.5965C51.187 43.7313 53.7122 44.2971 56.0823 44.2801C57.3198 44.2712 58.5149 44.1032 59.6286 43.7745L59.731 58.0235C58.0568 55.6522 55.8473 53.4654 53.2115 51.6388C47.3785 47.5963 40.5888 46.0918 35.0487 47.6131C34.0524 47.8868 33.3918 48.822 33.4737 49.8429C33.9292 55.5196 37.6836 61.322 43.5164 65.3644C47.8957 68.3994 52.8136 70.0039 57.3378 69.9714C58.1795 69.9653 59.0069 69.9004 59.8154 69.7797L59.8462 74.0682C56.1928 74.2266 52.6476 75.3256 49.5485 77.2678C46.2329 79.3458 43.5785 82.294 41.8725 85.7941C41.5483 86.459 41.5934 87.2138 41.992 87.8377C42.3905 88.4617 43.0855 88.8089 43.8309 88.8036L80.5429 88.5397C81.2884 88.5344 81.9783 88.1771 82.3678 87.5475C82.7575 86.9181 82.7919 86.1628 82.4582 85.5025ZM70.4635 46.9371C72.7486 45.3044 75.3462 44.3963 77.6422 44.3693C76.8915 46.519 75.2023 48.6743 72.9171 50.3071C70.632 51.9398 68.0344 52.8477 65.7383 52.8749C66.4889 50.7251 68.1781 48.5698 70.4635 46.9371ZM50.6356 38.7359C48.3915 37.6778 46.5667 36.0955 45.517 34.3643C47.535 34.0799 49.9258 34.4851 52.17 35.5432C54.4141 36.6012 56.2389 38.1835 57.2886 39.9145C55.2705 40.1991 52.8797 39.7939 50.6356 38.7359ZM45.9914 61.8613C41.9462 59.0579 39.0555 55.1772 38.0932 51.3838C42.0208 50.9794 46.6923 52.3393 50.7371 55.1424C54.7823 57.9458 57.673 61.8265 58.6353 65.62C54.7077 66.0245 50.036 64.6643 45.9914 61.8613ZM47.7113 84.5002C50.8003 80.6298 55.4974 78.3156 60.6442 78.2787L63.5804 78.2575C68.7271 78.2206 73.457 80.467 76.6014 84.2926L47.7113 84.5002Z" fill="#CAE3FF"/>
<path d="M182.249 24.9238L157.624 25.1007C153.742 25.1286 150.618 28.2677 150.646 32.1134L150.998 81.071C151.025 84.9166 154.194 88.0104 158.076 87.9825L182.701 87.8055C186.583 87.7776 189.708 84.6386 189.681 80.793L189.329 31.8354C189.301 27.9897 186.131 24.8959 182.249 24.9238ZM170.365 84.4532C169.361 84.4604 168.54 83.6602 168.533 82.6643C168.525 81.6703 169.335 80.8585 170.339 80.8513C171.342 80.8441 172.164 81.6442 172.171 82.6382C172.178 83.6342 171.368 84.446 170.365 84.4532ZM183.702 76.99L156.921 77.1825L156.604 32.9687L183.384 32.7762L183.702 76.99Z" fill="#CAE3FF"/>
<path d="M126.568 29.4891C126.581 31.3765 125.048 32.9177 123.142 32.9314C121.237 32.9451 119.681 31.4261 119.668 29.5387C119.654 27.6513 121.188 26.1101 123.093 26.0964C124.999 26.0827 126.554 27.6017 126.568 29.4891Z" fill="#CAE3FF"/>
<path d="M108.253 86.29C108.267 88.1774 106.733 89.7186 104.828 89.7323C102.923 89.746 101.367 88.227 101.353 86.3396C101.34 84.4521 102.873 82.911 104.779 82.8973C106.684 82.8836 108.24 84.4026 108.253 86.29Z" fill="#CAE3FF"/>
</svg>
