<svg width="558" height="126" viewBox="0 0 558 126" fill="none" xmlns="http://www.w3.org/2000/svg">
<path d="M192.179 12.0475C178.252 12.1475 165.04 17.1337 154.914 26.0723C153.564 27.3047 153.577 29.1389 154.945 30.3521C156.312 31.565 158.35 31.5504 159.7 30.3179C168.137 22.6147 179.653 17.9462 191.881 17.8583C217.358 17.9808 238.212 36.4795 238.375 59.1007C238.537 81.7219 217.951 100.518 192.816 100.699C167.68 100.88 146.827 82.3814 146.664 59.7598C146.477 33.7759 122.547 12.5479 93.6747 12.7554C64.8026 12.9629 41.1802 34.5326 41.3669 60.5166C41.5536 86.5005 65.4841 107.729 94.3562 107.521C104.886 107.445 115.056 104.621 123.511 99.3629C126.215 97.5092 128.919 95.6555 131.621 93.4962C132.971 92.2638 132.958 90.4296 131.59 89.2164C130.223 88.0031 128.185 88.0181 126.835 89.2506C124.81 91.0994 122.446 92.9506 119.739 94.4987C112.297 98.8323 103.483 101.341 94.3122 101.407C69.1766 101.588 48.323 83.0893 48.1604 60.4678C47.9978 37.8462 68.5835 19.0501 93.7191 18.8694C118.855 18.6888 139.708 37.1871 139.871 59.8086C140.058 85.7926 163.988 107.021 192.86 106.813C221.732 106.606 245.355 85.0358 245.168 59.0519C244.981 33.068 221.051 11.84 192.179 12.0475Z" fill="#CAE3FF"/>
<path d="M115.254 84.9956C113.673 81.8662 111.244 79.246 108.232 77.4178C105.377 75.6849 102.119 74.7401 98.7787 74.6677L98.6688 59.3745C99.1687 59.4385 99.6791 59.4694 100.197 59.4657C103.082 59.4449 106.192 58.3851 108.936 56.4244C112.6 53.8058 114.931 50.0681 115.171 46.426C115.232 45.5057 114.625 44.6722 113.724 44.4387C110.16 43.5147 105.844 44.5262 102.179 47.1448C100.779 48.1453 99.5741 49.3096 98.6056 50.5692L98.5073 36.8862C98.4997 35.8231 97.6234 34.9674 96.5501 34.9752C95.4767 34.9829 94.6128 35.851 94.6205 36.9141L94.6443 40.2278C93.3459 38.7479 91.6393 37.4684 89.6501 36.5305C85.8322 34.7304 81.6831 34.5202 78.5513 35.968C77.7076 36.3581 77.2616 37.286 77.4879 38.1806C78.3278 41.5012 81.1087 44.5584 84.9266 46.3585C87.0942 47.3805 89.3681 47.89 91.5024 47.8746C92.6168 47.8666 93.693 47.7154 94.6959 47.4194L94.7881 60.2507C93.2804 58.1153 91.2908 56.146 88.9172 54.5012C83.6645 50.8609 77.5504 49.5061 72.5615 50.8761C71.6643 51.1225 71.0695 51.9646 71.1432 52.884C71.5534 57.9959 74.9342 63.221 80.1867 66.8612C84.1303 69.5942 88.5589 71.0391 92.633 71.0098C93.3909 71.0043 94.136 70.9458 94.8641 70.8372L94.8918 74.699C91.6019 74.8417 88.4095 75.8313 85.6187 77.5802C82.633 79.4515 80.2426 82.1064 78.7064 85.2582C78.4145 85.8569 78.4551 86.5366 78.814 87.0985C79.1729 87.6604 79.7987 87.9731 80.4699 87.9683L113.529 87.7307C114.201 87.7258 114.822 87.4041 115.173 86.8372C115.524 86.2703 115.554 85.5902 115.254 84.9956ZM104.453 50.2673C106.51 48.797 108.85 47.9793 110.917 47.955C110.241 49.8908 108.72 51.8317 106.662 53.302C104.604 54.7723 102.265 55.5898 100.198 55.6143C100.874 53.6784 102.395 51.7375 104.453 50.2673ZM86.5976 42.882C84.5768 41.9293 82.9335 40.5044 81.9883 38.9454C83.8055 38.6893 85.9584 39.0542 87.9794 40.007C90.0002 40.9598 91.6434 42.3847 92.5887 43.9434C90.7714 44.1997 88.6184 43.8348 86.5976 42.882ZM82.4155 63.7066C78.7728 61.1822 76.1697 57.6876 75.3032 54.2715C78.8399 53.9074 83.0467 55.132 86.689 57.6562C90.3317 60.1807 92.9348 63.6752 93.8013 67.0913C90.2646 67.4556 86.0576 66.2307 82.4155 63.7066ZM83.9642 84.093C86.746 80.6077 90.9757 78.5238 95.6104 78.4905L98.2545 78.4715C102.889 78.4382 107.148 80.4611 109.98 83.9061L83.9642 84.093Z" fill="#CAE3FF"/>
<path d="M205.116 30.4442L182.942 30.6035C179.445 30.6287 176.633 33.4554 176.657 36.9185L176.974 81.005C176.999 84.468 179.852 87.254 183.348 87.2289L205.523 87.0695C209.019 87.0444 211.833 84.2176 211.808 80.7547L211.492 36.6682C211.467 33.2051 208.612 30.4191 205.116 30.4442ZM194.414 84.0507C193.51 84.0572 192.771 83.3367 192.764 82.4398C192.758 81.5447 193.487 80.8137 194.391 80.8072C195.295 80.8007 196.034 81.5212 196.041 82.4163C196.047 83.3132 195.318 84.0442 194.414 84.0507ZM206.424 77.3301L182.309 77.5034L182.022 37.6887L206.138 37.5154L206.424 77.3301Z" fill="#CAE3FF"/>
<path d="M154.975 34.5553C154.987 36.2549 153.606 37.6427 151.89 37.6551C150.174 37.6674 148.774 36.2996 148.761 34.5999C148.749 32.9003 150.13 31.5125 151.846 31.5001C153.562 31.4878 154.963 32.8556 154.975 34.5553Z" fill="#CAE3FF"/>
<path d="M138.483 85.7048C138.495 87.4044 137.114 88.7922 135.398 88.8046C133.682 88.8169 132.281 87.449 132.269 85.7494C132.257 84.0498 133.638 82.662 135.354 82.6496C137.07 82.6373 138.471 84.0051 138.483 85.7048Z" fill="#CAE3FF"/>
<path d="M270.236 35.64C270.236 34.5133 270.435 33.4127 270.834 32.338C271.25 31.246 271.848 30.258 272.628 29.374C273.408 28.4727 274.361 27.762 275.488 27.242C276.614 26.7047 277.897 26.436 279.336 26.436C281.034 26.436 282.499 26.8087 283.73 27.554C284.978 28.2993 285.905 29.27 286.512 30.466L283.756 32.364C283.444 31.6707 283.036 31.1247 282.534 30.726C282.031 30.31 281.494 30.024 280.922 29.868C280.35 29.6947 279.786 29.608 279.232 29.608C278.33 29.608 277.542 29.79 276.866 30.154C276.207 30.518 275.652 30.9947 275.202 31.584C274.751 32.1733 274.413 32.832 274.188 33.56C273.98 34.288 273.876 35.016 273.876 35.744C273.876 36.5587 274.006 37.3473 274.266 38.11C274.526 38.8553 274.89 39.5227 275.358 40.112C275.843 40.684 276.415 41.1433 277.074 41.49C277.75 41.8193 278.486 41.984 279.284 41.984C279.856 41.984 280.436 41.8887 281.026 41.698C281.615 41.5073 282.161 41.204 282.664 40.788C283.166 40.372 283.556 39.8347 283.834 39.176L286.772 40.866C286.408 41.7847 285.81 42.5647 284.978 43.206C284.163 43.8473 283.244 44.3327 282.222 44.662C281.199 44.9913 280.185 45.156 279.18 45.156C277.862 45.156 276.658 44.8873 275.566 44.35C274.474 43.7953 273.529 43.0673 272.732 42.166C271.952 41.2473 271.336 40.2247 270.886 39.098C270.452 37.954 270.236 36.8013 270.236 35.64ZM287.904 40.97C287.904 40.086 288.147 39.3147 288.632 38.656C289.135 37.98 289.828 37.46 290.712 37.096C291.596 36.732 292.61 36.55 293.754 36.55C294.326 36.55 294.907 36.5933 295.496 36.68C296.085 36.7667 296.597 36.9053 297.03 37.096V36.368C297.03 35.5013 296.77 34.834 296.25 34.366C295.747 33.898 294.993 33.664 293.988 33.664C293.243 33.664 292.532 33.794 291.856 34.054C291.18 34.314 290.469 34.6953 289.724 35.198L288.606 32.91C289.507 32.3207 290.426 31.8787 291.362 31.584C292.315 31.2893 293.312 31.142 294.352 31.142C296.293 31.142 297.801 31.6273 298.876 32.598C299.968 33.5687 300.514 34.9553 300.514 36.758V41.1C300.514 41.464 300.575 41.724 300.696 41.88C300.835 42.036 301.051 42.1313 301.346 42.166V45C301.034 45.052 300.748 45.0953 300.488 45.13C300.245 45.1647 300.037 45.182 299.864 45.182C299.171 45.182 298.642 45.026 298.278 44.714C297.931 44.402 297.715 44.0207 297.628 43.57L297.55 42.868C296.961 43.6307 296.224 44.22 295.34 44.636C294.456 45.052 293.555 45.26 292.636 45.26C291.735 45.26 290.92 45.078 290.192 44.714C289.481 44.3327 288.918 43.8213 288.502 43.18C288.103 42.5213 287.904 41.7847 287.904 40.97ZM296.38 41.672C296.571 41.464 296.727 41.256 296.848 41.048C296.969 40.84 297.03 40.6493 297.03 40.476V39.098C296.614 38.9247 296.163 38.7947 295.678 38.708C295.193 38.604 294.733 38.552 294.3 38.552C293.399 38.552 292.653 38.7513 292.064 39.15C291.492 39.5313 291.206 40.0427 291.206 40.684C291.206 41.0307 291.301 41.36 291.492 41.672C291.683 41.984 291.96 42.2353 292.324 42.426C292.688 42.6167 293.121 42.712 293.624 42.712C294.144 42.712 294.655 42.6167 295.158 42.426C295.661 42.218 296.068 41.9667 296.38 41.672ZM303.744 26.02H307.228V40.632C307.228 41.256 307.332 41.6807 307.54 41.906C307.748 42.114 308.034 42.218 308.398 42.218C308.675 42.218 308.961 42.1833 309.256 42.114C309.55 42.0447 309.81 41.958 310.036 41.854L310.504 44.506C310.036 44.7313 309.49 44.9047 308.866 45.026C308.242 45.1473 307.678 45.208 307.176 45.208C306.084 45.208 305.234 44.922 304.628 44.35C304.038 43.7607 303.744 42.9287 303.744 41.854V26.02ZM318.366 45.26C317.256 45.26 316.26 45.078 315.376 44.714C314.492 44.3327 313.738 43.8127 313.114 43.154C312.49 42.478 312.004 41.7153 311.658 40.866C311.328 40.0167 311.164 39.124 311.164 38.188C311.164 36.9053 311.45 35.7353 312.022 34.678C312.611 33.6033 313.443 32.7453 314.518 32.104C315.592 31.4627 316.866 31.142 318.34 31.142C319.813 31.142 321.078 31.4627 322.136 32.104C323.193 32.7453 323.982 33.586 324.502 34.626L321.096 35.666C320.801 35.1633 320.411 34.782 319.926 34.522C319.44 34.2447 318.903 34.106 318.314 34.106C317.655 34.106 317.048 34.2793 316.494 34.626C315.956 34.9553 315.532 35.432 315.22 36.056C314.908 36.6627 314.752 37.3733 314.752 38.188C314.752 38.9853 314.908 39.696 315.22 40.32C315.549 40.9267 315.982 41.412 316.52 41.776C317.057 42.1227 317.655 42.296 318.314 42.296C318.73 42.296 319.12 42.2267 319.484 42.088C319.865 41.9493 320.203 41.7587 320.498 41.516C320.792 41.2733 321.009 40.996 321.148 40.684L324.554 41.724C324.242 42.4 323.782 43.0067 323.176 43.544C322.586 44.0813 321.884 44.506 321.07 44.818C320.272 45.1127 319.371 45.26 318.366 45.26ZM326.567 39.904V31.376H330.051V39.15C330.051 40.19 330.242 40.9787 330.623 41.516C331.005 42.036 331.568 42.296 332.313 42.296C332.764 42.296 333.206 42.2093 333.639 42.036C334.09 41.8453 334.497 41.568 334.861 41.204C335.243 40.84 335.563 40.3807 335.823 39.826V31.376H339.307V41.1C339.307 41.464 339.368 41.724 339.489 41.88C339.628 42.036 339.845 42.1313 340.139 42.166V45C339.793 45.052 339.498 45.0867 339.255 45.104C339.03 45.1387 338.822 45.156 338.631 45.156C338.007 45.156 337.496 45.0173 337.097 44.74C336.716 44.4453 336.491 44.0467 336.421 43.544L336.343 42.452C335.737 43.3707 334.957 44.0727 334.003 44.558C333.05 45.026 332.001 45.26 330.857 45.26C329.453 45.26 328.387 44.8093 327.659 43.908C326.931 42.9893 326.567 41.6547 326.567 39.904ZM342.744 26.02H346.228V40.632C346.228 41.256 346.332 41.6807 346.54 41.906C346.748 42.114 347.034 42.218 347.398 42.218C347.675 42.218 347.961 42.1833 348.256 42.114C348.55 42.0447 348.81 41.958 349.036 41.854L349.504 44.506C349.036 44.7313 348.49 44.9047 347.866 45.026C347.242 45.1473 346.678 45.208 346.176 45.208C345.084 45.208 344.234 44.922 343.628 44.35C343.038 43.7607 342.744 42.9287 342.744 41.854V26.02ZM350.086 40.97C350.086 40.086 350.328 39.3147 350.814 38.656C351.316 37.98 352.01 37.46 352.894 37.096C353.778 36.732 354.792 36.55 355.936 36.55C356.508 36.55 357.088 36.5933 357.678 36.68C358.267 36.7667 358.778 36.9053 359.212 37.096V36.368C359.212 35.5013 358.952 34.834 358.432 34.366C357.929 33.898 357.175 33.664 356.17 33.664C355.424 33.664 354.714 33.794 354.038 34.054C353.362 34.314 352.651 34.6953 351.906 35.198L350.788 32.91C351.689 32.3207 352.608 31.8787 353.544 31.584C354.497 31.2893 355.494 31.142 356.534 31.142C358.475 31.142 359.983 31.6273 361.058 32.598C362.15 33.5687 362.696 34.9553 362.696 36.758V41.1C362.696 41.464 362.756 41.724 362.878 41.88C363.016 42.036 363.233 42.1313 363.528 42.166V45C363.216 45.052 362.93 45.0953 362.67 45.13C362.427 45.1647 362.219 45.182 362.046 45.182C361.352 45.182 360.824 45.026 360.46 44.714C360.113 44.402 359.896 44.0207 359.81 43.57L359.732 42.868C359.142 43.6307 358.406 44.22 357.522 44.636C356.638 45.052 355.736 45.26 354.818 45.26C353.916 45.26 353.102 45.078 352.374 44.714C351.663 44.3327 351.1 43.8213 350.684 43.18C350.285 42.5213 350.086 41.7847 350.086 40.97ZM358.562 41.672C358.752 41.464 358.908 41.256 359.03 41.048C359.151 40.84 359.212 40.6493 359.212 40.476V39.098C358.796 38.9247 358.345 38.7947 357.86 38.708C357.374 38.604 356.915 38.552 356.482 38.552C355.58 38.552 354.835 38.7513 354.246 39.15C353.674 39.5313 353.388 40.0427 353.388 40.684C353.388 41.0307 353.483 41.36 353.674 41.672C353.864 41.984 354.142 42.2353 354.506 42.426C354.87 42.6167 355.303 42.712 355.806 42.712C356.326 42.712 356.837 42.6167 357.34 42.426C357.842 42.218 358.25 41.9667 358.562 41.672ZM365.119 38.188C365.119 36.8707 365.379 35.6833 365.899 34.626C366.419 33.5513 367.139 32.702 368.057 32.078C368.976 31.454 370.025 31.142 371.203 31.142C372.209 31.142 373.11 31.3933 373.907 31.896C374.722 32.3813 375.355 33.0053 375.805 33.768V26.02H379.289V41.1C379.289 41.464 379.35 41.724 379.471 41.88C379.593 42.036 379.801 42.1313 380.095 42.166V45C379.489 45.1213 378.995 45.182 378.613 45.182C377.989 45.182 377.469 45.026 377.053 44.714C376.655 44.402 376.429 43.9947 376.377 43.492L376.325 42.634C375.823 43.4833 375.138 44.1333 374.271 44.584C373.422 45.0347 372.529 45.26 371.593 45.26C370.657 45.26 369.791 45.078 368.993 44.714C368.213 44.35 367.529 43.8473 366.939 43.206C366.367 42.5647 365.917 41.8193 365.587 40.97C365.275 40.1033 365.119 39.176 365.119 38.188ZM375.805 40.008V36.758C375.632 36.2553 375.355 35.8047 374.973 35.406C374.592 35.0073 374.167 34.6953 373.699 34.47C373.231 34.2273 372.763 34.106 372.295 34.106C371.758 34.106 371.273 34.2187 370.839 34.444C370.406 34.6693 370.025 34.9727 369.695 35.354C369.383 35.7353 369.141 36.1773 368.967 36.68C368.811 37.1827 368.733 37.7113 368.733 38.266C368.733 38.8207 368.82 39.3493 368.993 39.852C369.184 40.3373 369.453 40.762 369.799 41.126C370.146 41.49 370.545 41.776 370.995 41.984C371.463 42.192 371.966 42.296 372.503 42.296C372.833 42.296 373.162 42.244 373.491 42.14C373.838 42.0187 374.159 41.8627 374.453 41.672C374.765 41.464 375.034 41.2213 375.259 40.944C375.502 40.6493 375.684 40.3373 375.805 40.008ZM389.001 45.26C387.892 45.26 386.895 45.078 386.011 44.714C385.127 44.3327 384.373 43.8127 383.749 43.154C383.142 42.4953 382.674 41.7413 382.345 40.892C382.016 40.0427 381.851 39.15 381.851 38.214C381.851 37.2607 382.016 36.3593 382.345 35.51C382.674 34.6607 383.142 33.9067 383.749 33.248C384.373 32.5893 385.127 32.078 386.011 31.714C386.895 31.3327 387.892 31.142 389.001 31.142C390.11 31.142 391.098 31.3327 391.965 31.714C392.849 32.078 393.603 32.5893 394.227 33.248C394.851 33.9067 395.319 34.6607 395.631 35.51C395.96 36.3593 396.125 37.2607 396.125 38.214C396.125 39.15 395.96 40.0427 395.631 40.892C395.319 41.7413 394.851 42.4953 394.227 43.154C393.62 43.8127 392.875 44.3327 391.991 44.714C391.107 45.078 390.11 45.26 389.001 45.26ZM385.439 38.214C385.439 39.0113 385.595 39.722 385.907 40.346C386.219 40.9527 386.644 41.4293 387.181 41.776C387.718 42.1227 388.325 42.296 389.001 42.296C389.66 42.296 390.258 42.1227 390.795 41.776C391.332 41.412 391.757 40.9267 392.069 40.32C392.398 39.696 392.563 38.9853 392.563 38.188C392.563 37.408 392.398 36.706 392.069 36.082C391.757 35.458 391.332 34.9727 390.795 34.626C390.258 34.2793 389.66 34.106 389.001 34.106C388.325 34.106 387.718 34.288 387.181 34.652C386.644 34.9987 386.219 35.484 385.907 36.108C385.595 36.7147 385.439 37.4167 385.439 38.214ZM406.589 34.392C405.531 34.392 404.587 34.6 403.755 35.016C402.923 35.4147 402.325 35.9953 401.961 36.758V45H398.477V31.376H401.675V34.288C402.16 33.352 402.775 32.6153 403.521 32.078C404.266 31.5407 405.055 31.246 405.887 31.194C406.077 31.194 406.225 31.194 406.329 31.194C406.433 31.194 406.519 31.2027 406.589 31.22V34.392ZM407.519 40.97C407.519 40.086 407.762 39.3147 408.247 38.656C408.75 37.98 409.443 37.46 410.327 37.096C411.211 36.732 412.225 36.55 413.369 36.55C413.941 36.55 414.522 36.5933 415.111 36.68C415.7 36.7667 416.212 36.9053 416.645 37.096V36.368C416.645 35.5013 416.385 34.834 415.865 34.366C415.362 33.898 414.608 33.664 413.603 33.664C412.858 33.664 412.147 33.794 411.471 34.054C410.795 34.314 410.084 34.6953 409.339 35.198L408.221 32.91C409.122 32.3207 410.041 31.8787 410.977 31.584C411.93 31.2893 412.927 31.142 413.967 31.142C415.908 31.142 417.416 31.6273 418.491 32.598C419.583 33.5687 420.129 34.9553 420.129 36.758V41.1C420.129 41.464 420.19 41.724 420.311 41.88C420.45 42.036 420.666 42.1313 420.961 42.166V45C420.649 45.052 420.363 45.0953 420.103 45.13C419.86 45.1647 419.652 45.182 419.479 45.182C418.786 45.182 418.257 45.026 417.893 44.714C417.546 44.402 417.33 44.0207 417.243 43.57L417.165 42.868C416.576 43.6307 415.839 44.22 414.955 44.636C414.071 45.052 413.17 45.26 412.251 45.26C411.35 45.26 410.535 45.078 409.807 44.714C409.096 44.3327 408.533 43.8213 408.117 43.18C407.718 42.5213 407.519 41.7847 407.519 40.97ZM415.995 41.672C416.186 41.464 416.342 41.256 416.463 41.048C416.584 40.84 416.645 40.6493 416.645 40.476V39.098C416.229 38.9247 415.778 38.7947 415.293 38.708C414.808 38.604 414.348 38.552 413.915 38.552C413.014 38.552 412.268 38.7513 411.679 39.15C411.107 39.5313 410.821 40.0427 410.821 40.684C410.821 41.0307 410.916 41.36 411.107 41.672C411.298 41.984 411.575 42.2353 411.939 42.426C412.303 42.6167 412.736 42.712 413.239 42.712C413.759 42.712 414.27 42.6167 414.773 42.426C415.276 42.218 415.683 41.9667 415.995 41.672ZM428.799 38.188C428.799 36.8707 429.059 35.6833 429.579 34.626C430.099 33.5513 430.818 32.702 431.737 32.078C432.656 31.454 433.704 31.142 434.883 31.142C435.888 31.142 436.79 31.3933 437.587 31.896C438.402 32.3813 439.034 33.0053 439.485 33.768V26.02H442.969V41.1C442.969 41.464 443.03 41.724 443.151 41.88C443.272 42.036 443.48 42.1313 443.775 42.166V45C443.168 45.1213 442.674 45.182 442.293 45.182C441.669 45.182 441.149 45.026 440.733 44.714C440.334 44.402 440.109 43.9947 440.057 43.492L440.005 42.634C439.502 43.4833 438.818 44.1333 437.951 44.584C437.102 45.0347 436.209 45.26 435.273 45.26C434.337 45.26 433.47 45.078 432.673 44.714C431.893 44.35 431.208 43.8473 430.619 43.206C430.047 42.5647 429.596 41.8193 429.267 40.97C428.955 40.1033 428.799 39.176 428.799 38.188ZM439.485 40.008V36.758C439.312 36.2553 439.034 35.8047 438.653 35.406C438.272 35.0073 437.847 34.6953 437.379 34.47C436.911 34.2273 436.443 34.106 435.975 34.106C435.438 34.106 434.952 34.2187 434.519 34.444C434.086 34.6693 433.704 34.9727 433.375 35.354C433.063 35.7353 432.82 36.1773 432.647 36.68C432.491 37.1827 432.413 37.7113 432.413 38.266C432.413 38.8207 432.5 39.3493 432.673 39.852C432.864 40.3373 433.132 40.762 433.479 41.126C433.826 41.49 434.224 41.776 434.675 41.984C435.143 42.192 435.646 42.296 436.183 42.296C436.512 42.296 436.842 42.244 437.171 42.14C437.518 42.0187 437.838 41.8627 438.133 41.672C438.445 41.464 438.714 41.2213 438.939 40.944C439.182 40.6493 439.364 40.3373 439.485 40.008ZM452.681 45.26C451.571 45.26 450.575 45.078 449.691 44.714C448.807 44.3327 448.053 43.8127 447.429 43.154C446.822 42.4953 446.354 41.7413 446.025 40.892C445.695 40.0427 445.531 39.15 445.531 38.214C445.531 37.2607 445.695 36.3593 446.025 35.51C446.354 34.6607 446.822 33.9067 447.429 33.248C448.053 32.5893 448.807 32.078 449.691 31.714C450.575 31.3327 451.571 31.142 452.681 31.142C453.79 31.142 454.778 31.3327 455.645 31.714C456.529 32.078 457.283 32.5893 457.907 33.248C458.531 33.9067 458.999 34.6607 459.311 35.51C459.64 36.3593 459.805 37.2607 459.805 38.214C459.805 39.15 459.64 40.0427 459.311 40.892C458.999 41.7413 458.531 42.4953 457.907 43.154C457.3 43.8127 456.555 44.3327 455.671 44.714C454.787 45.078 453.79 45.26 452.681 45.26ZM449.119 38.214C449.119 39.0113 449.275 39.722 449.587 40.346C449.899 40.9527 450.323 41.4293 450.861 41.776C451.398 42.1227 452.005 42.296 452.681 42.296C453.339 42.296 453.937 42.1227 454.475 41.776C455.012 41.412 455.437 40.9267 455.749 40.32C456.078 39.696 456.243 38.9853 456.243 38.188C456.243 37.408 456.078 36.706 455.749 36.082C455.437 35.458 455.012 34.9727 454.475 34.626C453.937 34.2793 453.339 34.106 452.681 34.106C452.005 34.106 451.398 34.288 450.861 34.652C450.323 34.9987 449.899 35.484 449.587 36.108C449.275 36.7147 449.119 37.4167 449.119 38.214ZM271.195 65.76H277.355L288.839 97H282.591L279.687 89.212H268.775L265.915 97H259.667L271.195 65.76ZM278.587 84.944L274.275 72.052L269.787 84.944H278.587ZM300.069 97.132C298.544 97.132 297.136 96.8387 295.845 96.252C294.584 95.636 293.484 94.7853 292.545 93.7C291.636 92.6147 290.932 91.368 290.433 89.96C289.935 88.552 289.685 87.056 289.685 85.472C289.685 83.8 289.949 82.2453 290.477 80.808C291.005 79.3707 291.739 78.1093 292.677 77.024C293.645 75.9093 294.775 75.0587 296.065 74.472C297.385 73.856 298.837 73.548 300.421 73.548C302.211 73.548 303.78 73.9587 305.129 74.78C306.479 75.572 307.593 76.6427 308.473 77.992V73.944H313.621V95.9C313.621 98.188 313.064 100.139 311.949 101.752C310.864 103.395 309.353 104.641 307.417 105.492C305.481 106.372 303.281 106.812 300.817 106.812C298.324 106.812 296.212 106.387 294.481 105.536C292.751 104.715 291.269 103.541 290.037 102.016L293.249 98.892C294.129 99.9773 295.229 100.828 296.549 101.444C297.899 102.06 299.321 102.368 300.817 102.368C302.079 102.368 303.223 102.133 304.249 101.664C305.305 101.224 306.141 100.52 306.757 99.552C307.403 98.6133 307.725 97.396 307.725 95.9V92.996C306.963 94.316 305.877 95.3427 304.469 96.076C303.091 96.78 301.624 97.132 300.069 97.132ZM302.049 92.424C302.695 92.424 303.311 92.3213 303.897 92.116C304.484 91.9107 305.027 91.632 305.525 91.28C306.024 90.928 306.464 90.5173 306.845 90.048C307.227 89.5493 307.52 89.0507 307.725 88.552V83.052C307.373 82.1427 306.875 81.3507 306.229 80.676C305.613 80.0013 304.909 79.488 304.117 79.136C303.355 78.7547 302.548 78.564 301.697 78.564C300.788 78.564 299.967 78.7547 299.233 79.136C298.5 79.5173 297.869 80.06 297.341 80.764C296.813 81.4387 296.403 82.2013 296.109 83.052C295.845 83.8733 295.713 84.7387 295.713 85.648C295.713 86.5867 295.875 87.4667 296.197 88.288C296.52 89.1093 296.96 89.828 297.517 90.444C298.104 91.06 298.779 91.544 299.541 91.896C300.333 92.248 301.169 92.424 302.049 92.424ZM332.664 79.048C330.875 79.048 329.276 79.4 327.868 80.104C326.46 80.7787 325.448 81.7613 324.832 83.052V97H318.936V73.944H324.348V78.872C325.169 77.288 326.211 76.0413 327.472 75.132C328.733 74.2227 330.068 73.724 331.476 73.636C331.799 73.636 332.048 73.636 332.224 73.636C332.4 73.636 332.547 73.6507 332.664 73.68V79.048ZM335.952 97V73.944H341.848V97H335.952ZM335.952 70.732V64.88H341.848V70.732H335.952ZM357.902 97.44C356.025 97.44 354.338 97.132 352.842 96.516C351.346 95.8707 350.07 94.9907 349.014 93.876C347.958 92.732 347.137 91.4413 346.55 90.004C345.993 88.5667 345.714 87.056 345.714 85.472C345.714 83.3013 346.198 81.3213 347.166 79.532C348.164 77.7133 349.572 76.2613 351.39 75.176C353.209 74.0907 355.365 73.548 357.858 73.548C360.352 73.548 362.493 74.0907 364.282 75.176C366.072 76.2613 367.406 77.684 368.286 79.444L362.522 81.204C362.024 80.3533 361.364 79.708 360.542 79.268C359.721 78.7987 358.812 78.564 357.814 78.564C356.7 78.564 355.673 78.8573 354.734 79.444C353.825 80.0013 353.106 80.808 352.578 81.864C352.05 82.8907 351.786 84.0933 351.786 85.472C351.786 86.8213 352.05 88.024 352.578 89.08C353.136 90.1067 353.869 90.928 354.778 91.544C355.688 92.1307 356.7 92.424 357.814 92.424C358.518 92.424 359.178 92.3067 359.794 92.072C360.44 91.8373 361.012 91.5147 361.51 91.104C362.009 90.6933 362.376 90.224 362.61 89.696L368.374 91.456C367.846 92.6 367.069 93.6267 366.042 94.536C365.045 95.4453 363.857 96.164 362.478 96.692C361.129 97.1907 359.604 97.44 357.902 97.44ZM371.782 88.376V73.944H377.678V87.1C377.678 88.86 378.001 90.1947 378.646 91.104C379.292 91.984 380.245 92.424 381.506 92.424C382.269 92.424 383.017 92.2773 383.75 91.984C384.513 91.6613 385.202 91.192 385.818 90.576C386.464 89.96 387.006 89.1827 387.446 88.244V73.944H393.342V90.4C393.342 91.016 393.445 91.456 393.65 91.72C393.885 91.984 394.252 92.1453 394.75 92.204V97C394.164 97.088 393.665 97.1467 393.254 97.176C392.873 97.2347 392.521 97.264 392.198 97.264C391.142 97.264 390.277 97.0293 389.602 96.56C388.957 96.0613 388.576 95.3867 388.458 94.536L388.326 92.688C387.3 94.2427 385.98 95.4307 384.366 96.252C382.753 97.044 380.978 97.44 379.042 97.44C376.666 97.44 374.862 96.6773 373.63 95.152C372.398 93.5973 371.782 91.3387 371.782 88.376ZM399.158 64.88H405.054V89.608C405.054 90.664 405.23 91.3827 405.582 91.764C405.934 92.116 406.418 92.292 407.034 92.292C407.503 92.292 407.987 92.2333 408.486 92.116C408.984 91.9987 409.424 91.852 409.806 91.676L410.598 96.164C409.806 96.5453 408.882 96.8387 407.826 97.044C406.77 97.2493 405.816 97.352 404.966 97.352C403.118 97.352 401.68 96.868 400.654 95.9C399.656 94.9027 399.158 93.4947 399.158 91.676V64.88ZM426.725 95.812C426.226 96.0173 425.625 96.252 424.921 96.516C424.217 96.78 423.454 96.9853 422.633 97.132C421.841 97.308 421.034 97.396 420.213 97.396C419.127 97.396 418.13 97.2053 417.221 96.824C416.311 96.4427 415.578 95.8413 415.021 95.02C414.493 94.1693 414.229 93.0693 414.229 91.72V78.476H411.193V73.944H414.229V66.464H420.125V73.944H424.965V78.476H420.125V89.74C420.154 90.532 420.374 91.104 420.785 91.456C421.195 91.808 421.709 91.984 422.325 91.984C422.941 91.984 423.542 91.8813 424.129 91.676C424.715 91.4707 425.185 91.2947 425.537 91.148L426.725 95.812ZM440.186 97.44C438.308 97.44 436.622 97.132 435.126 96.516C433.63 95.8707 432.354 94.9907 431.298 93.876C430.271 92.7613 429.479 91.4853 428.922 90.048C428.364 88.6107 428.086 87.1 428.086 85.516C428.086 83.9027 428.364 82.3773 428.922 80.94C429.479 79.5027 430.271 78.2267 431.298 77.112C432.354 75.9973 433.63 75.132 435.126 74.516C436.622 73.8707 438.308 73.548 440.186 73.548C442.063 73.548 443.735 73.8707 445.202 74.516C446.698 75.132 447.974 75.9973 449.03 77.112C450.086 78.2267 450.878 79.5027 451.406 80.94C451.963 82.3773 452.242 83.9027 452.242 85.516C452.242 87.1 451.963 88.6107 451.406 90.048C450.878 91.4853 450.086 92.7613 449.03 93.876C448.003 94.9907 446.742 95.8707 445.246 96.516C443.75 97.132 442.063 97.44 440.186 97.44ZM434.158 85.516C434.158 86.8653 434.422 88.068 434.95 89.124C435.478 90.1507 436.196 90.9573 437.106 91.544C438.015 92.1307 439.042 92.424 440.186 92.424C441.3 92.424 442.312 92.1307 443.222 91.544C444.131 90.928 444.85 90.1067 445.378 89.08C445.935 88.024 446.214 86.8213 446.214 85.472C446.214 84.152 445.935 82.964 445.378 81.908C444.85 80.852 444.131 80.0307 443.222 79.444C442.312 78.8573 441.3 78.564 440.186 78.564C439.042 78.564 438.015 78.872 437.106 79.488C436.196 80.0747 435.478 80.896 434.95 81.952C434.422 82.9787 434.158 84.1667 434.158 85.516ZM469.949 79.048C468.16 79.048 466.561 79.4 465.153 80.104C463.745 80.7787 462.733 81.7613 462.117 83.052V97H456.221V73.944H461.633V78.872C462.454 77.288 463.496 76.0413 464.757 75.132C466.018 74.2227 467.353 73.724 468.761 73.636C469.084 73.636 469.333 73.636 469.509 73.636C469.685 73.636 469.832 73.6507 469.949 73.68V79.048Z" fill="#CAE3FF"/>
</svg>
